<mxfile host="app.diagrams.net" agent="Mozilla/5.0 (Macintosh; Intel Mac OS X 10.15; rv:142.0) Gecko/20100101 Firefox/142.0" version="28.1.1">
  <diagram name="Page-1" id="FPYwkTpCpRnSG4pSkl_z">
    <mxGraphModel dx="1981" dy="1869" grid="1" gridSize="10" guides="1" tooltips="1" connect="1" arrows="1" fold="1" page="1" pageScale="1" pageWidth="850" pageHeight="1100" math="0" shadow="0">
      <root>
        <mxCell id="0" />
        <mxCell id="1" parent="0" />
        <mxCell id="vtjO4Fiq_EEoXAfoMhhM-1" value="shard-router" style="whiteSpace=wrap;html=1;" parent="1" vertex="1">
          <mxGeometry x="-270" y="-515" width="120" height="60" as="geometry" />
        </mxCell>
        <mxCell id="vtjO4Fiq_EEoXAfoMhhM-9" value="cli" style="whiteSpace=wrap;html=1;" parent="1" vertex="1">
          <mxGeometry x="-510" y="-570" width="120" height="60" as="geometry" />
        </mxCell>
        <mxCell id="vtjO4Fiq_EEoXAfoMhhM-10" value="sdk" style="whiteSpace=wrap;html=1;" parent="1" vertex="1">
          <mxGeometry x="-510" y="-460" width="120" height="60" as="geometry" />
        </mxCell>
        <mxCell id="vtjO4Fiq_EEoXAfoMhhM-15" value="" style="endArrow=classic;startArrow=classic;html=1;rounded=0;exitX=1;exitY=0.5;exitDx=0;exitDy=0;entryX=0;entryY=0.5;entryDx=0;entryDy=0;" parent="1" source="vtjO4Fiq_EEoXAfoMhhM-9" target="vtjO4Fiq_EEoXAfoMhhM-1" edge="1">
          <mxGeometry width="50" height="50" relative="1" as="geometry">
            <mxPoint x="-220" y="-455" as="sourcePoint" />
            <mxPoint x="-170" y="-505" as="targetPoint" />
          </mxGeometry>
        </mxCell>
        <mxCell id="vtjO4Fiq_EEoXAfoMhhM-16" value="" style="endArrow=classic;startArrow=classic;html=1;rounded=0;exitX=1;exitY=0.5;exitDx=0;exitDy=0;entryX=0;entryY=0.5;entryDx=0;entryDy=0;" parent="1" source="vtjO4Fiq_EEoXAfoMhhM-10" edge="1" target="vtjO4Fiq_EEoXAfoMhhM-1">
          <mxGeometry width="50" height="50" relative="1" as="geometry">
            <mxPoint x="-350" y="-655" as="sourcePoint" />
            <mxPoint x="-270" y="-485" as="targetPoint" />
          </mxGeometry>
        </mxCell>
        <mxCell id="KWuHYRQMg_IsX-tZYb9b-2" value="replica-router" style="whiteSpace=wrap;html=1;" parent="1" vertex="1">
          <mxGeometry x="-80" y="-515" width="120" height="60" as="geometry" />
        </mxCell>
        <mxCell id="KWuHYRQMg_IsX-tZYb9b-20" value="primary" style="shape=cylinder3;whiteSpace=wrap;html=1;boundedLbl=1;backgroundOutline=1;size=15;" parent="1" vertex="1">
          <mxGeometry x="90" y="-525" width="60" height="80" as="geometry" />
        </mxCell>
        <mxCell id="KWuHYRQMg_IsX-tZYb9b-21" value="replica" style="shape=cylinder3;whiteSpace=wrap;html=1;boundedLbl=1;backgroundOutline=1;size=15;" parent="1" vertex="1">
          <mxGeometry x="90" y="-430" width="60" height="80" as="geometry" />
        </mxCell>
        <mxCell id="KWuHYRQMg_IsX-tZYb9b-23" value="message-queue" style="shape=cylinder3;whiteSpace=wrap;html=1;boundedLbl=1;backgroundOutline=1;size=15;direction=south;" parent="1" vertex="1">
          <mxGeometry x="210" y="-520" width="150" height="70" as="geometry" />
        </mxCell>
        <mxCell id="KWuHYRQMg_IsX-tZYb9b-25" value="" style="endArrow=classic;html=1;rounded=0;exitX=0.5;exitY=0;exitDx=0;exitDy=0;exitPerimeter=0;entryX=0;entryY=0.5;entryDx=0;entryDy=0;" parent="1" source="KWuHYRQMg_IsX-tZYb9b-23" target="KWuHYRQMg_IsX-tZYb9b-26" edge="1">
          <mxGeometry width="50" height="50" relative="1" as="geometry">
            <mxPoint x="-10" y="-360" as="sourcePoint" />
            <mxPoint x="460" y="-485" as="targetPoint" />
          </mxGeometry>
        </mxCell>
        <mxCell id="KWuHYRQMg_IsX-tZYb9b-26" value="replica-write-service" style="whiteSpace=wrap;html=1;" parent="1" vertex="1">
          <mxGeometry x="400" y="-515" width="120" height="60" as="geometry" />
        </mxCell>
        <mxCell id="EYG0jpqOQRrYR-XGWeUT-4" value="" style="endArrow=classic;startArrow=classic;html=1;rounded=0;entryX=0;entryY=0.5;entryDx=0;entryDy=0;exitX=1;exitY=0.5;exitDx=0;exitDy=0;" edge="1" parent="1" source="vtjO4Fiq_EEoXAfoMhhM-1" target="KWuHYRQMg_IsX-tZYb9b-2">
          <mxGeometry width="50" height="50" relative="1" as="geometry">
            <mxPoint x="70" y="-410" as="sourcePoint" />
            <mxPoint x="120" y="-460" as="targetPoint" />
          </mxGeometry>
        </mxCell>
        <mxCell id="EYG0jpqOQRrYR-XGWeUT-5" value="" style="endArrow=classic;startArrow=classic;html=1;rounded=0;entryX=0;entryY=0.5;entryDx=0;entryDy=0;entryPerimeter=0;exitX=1;exitY=0.5;exitDx=0;exitDy=0;" edge="1" parent="1" source="KWuHYRQMg_IsX-tZYb9b-2" target="KWuHYRQMg_IsX-tZYb9b-20">
          <mxGeometry width="50" height="50" relative="1" as="geometry">
            <mxPoint x="-80" y="-440" as="sourcePoint" />
            <mxPoint x="-30" y="-490" as="targetPoint" />
          </mxGeometry>
        </mxCell>
        <mxCell id="EYG0jpqOQRrYR-XGWeUT-7" value="" style="endArrow=classic;startArrow=classic;html=1;rounded=0;entryX=0.5;entryY=1;entryDx=0;entryDy=0;entryPerimeter=0;exitX=1;exitY=0.5;exitDx=0;exitDy=0;exitPerimeter=0;" edge="1" parent="1" source="KWuHYRQMg_IsX-tZYb9b-20" target="KWuHYRQMg_IsX-tZYb9b-23">
          <mxGeometry width="50" height="50" relative="1" as="geometry">
            <mxPoint x="70" y="-440" as="sourcePoint" />
            <mxPoint x="120" y="-490" as="targetPoint" />
          </mxGeometry>
        </mxCell>
        <mxCell id="EYG0jpqOQRrYR-XGWeUT-8" value="" style="endArrow=classic;startArrow=classic;html=1;rounded=0;exitX=1;exitY=0.5;exitDx=0;exitDy=0;entryX=0;entryY=0.5;entryDx=0;entryDy=0;entryPerimeter=0;" edge="1" parent="1" source="KWuHYRQMg_IsX-tZYb9b-2" target="KWuHYRQMg_IsX-tZYb9b-21">
          <mxGeometry width="50" height="50" relative="1" as="geometry">
            <mxPoint x="90" y="-430" as="sourcePoint" />
            <mxPoint x="140" y="-480" as="targetPoint" />
          </mxGeometry>
        </mxCell>
        <mxCell id="EYG0jpqOQRrYR-XGWeUT-9" style="edgeStyle=orthogonalEdgeStyle;rounded=0;orthogonalLoop=1;jettySize=auto;html=1;exitX=0.5;exitY=1;exitDx=0;exitDy=0;entryX=1;entryY=0;entryDx=0;entryDy=52.5;entryPerimeter=0;" edge="1" parent="1" source="KWuHYRQMg_IsX-tZYb9b-26" target="KWuHYRQMg_IsX-tZYb9b-21">
          <mxGeometry relative="1" as="geometry" />
        </mxCell>
      </root>
    </mxGraphModel>
  </diagram>
</mxfile>
